<svg width="647" height="100" viewBox="0 0 647 100" fill="none" xmlns="http://www.w3.org/2000/svg">
<path d="M643.454 67.7611C643.366 68.6935 642.806 69.6467 641.669 70.6176C640.532 71.5894 638.859 72.5408 636.651 73.4603C632.236 75.2984 625.793 76.9637 617.515 78.4383C600.968 81.3859 577.201 83.5527 547.937 84.8573C489.417 87.4662 408.98 86.625 320.501 81.7134C232.021 76.8017 152.266 68.7505 94.848 59.7056C66.1359 55.1827 43.025 50.4137 27.2052 45.6693C19.2913 43.296 13.2287 40.9364 9.20603 38.6299C7.19363 37.4761 5.71757 36.3499 4.77478 35.2626C3.83284 34.1764 3.45774 33.1712 3.54592 32.2389C3.6341 31.3065 4.19443 30.3533 5.33094 29.3824C6.46848 28.4106 8.14104 27.4592 10.3495 26.5397C14.7642 24.7016 21.2075 23.0363 29.4853 21.5617C46.0327 18.614 69.7995 16.4473 99.0628 15.1427C157.583 12.5337 238.02 13.375 326.5 18.2866C414.979 23.1982 494.734 31.2495 552.152 40.2944C580.864 44.8173 603.975 49.5863 619.795 54.3307C627.709 56.704 633.772 59.0636 637.794 61.37C639.807 62.5239 641.283 63.6501 642.225 64.7373C643.167 65.8236 643.543 66.8288 643.454 67.7611Z" stroke="#3C2D16"/>
<path d="M644.293 50C644.293 50.9339 643.825 51.9153 642.783 52.9467C641.74 53.9789 640.162 55.0205 638.045 56.0599C633.816 58.1377 627.546 60.1554 619.429 62.0845C603.203 65.9406 579.702 69.4175 550.639 72.339C492.517 78.1812 412.211 81.7956 323.5 81.7956C234.788 81.7956 154.482 78.1812 96.361 72.339C67.2973 69.4175 43.7969 65.9406 27.5707 62.0845C19.4536 60.1554 13.1841 58.1377 8.95429 56.0599C6.83822 55.0205 5.25973 53.9789 4.21683 52.9467C3.17481 51.9153 2.7063 50.9339 2.7063 50C2.7063 49.0661 3.17481 48.0847 4.21683 47.0533C5.25973 46.0211 6.83822 44.9795 8.95429 43.9401C13.1841 41.8624 19.4536 39.8446 27.5707 37.9156C43.7969 34.0594 67.2973 30.5825 96.361 27.6611C154.482 21.8188 234.788 18.2044 323.5 18.2044C412.211 18.2044 492.517 21.8188 550.639 27.6611C579.702 30.5825 603.203 34.0594 619.429 37.9156C627.546 39.8446 633.816 41.8624 638.045 43.9401C640.162 44.9795 641.74 46.0211 642.783 47.0533C643.825 48.0847 644.293 49.0661 644.293 50Z" stroke="#3C2D16"/>
</svg>
