<svg width="30" height="30" viewBox="0 0 30 30" fill="none" xmlns="http://www.w3.org/2000/svg">
<path d="M0 0H30V30H0V0Z" fill="#3C2D16"/>
<path d="M16.3 22.2C14.18 22.2 12.5733 21.62 11.48 20.46C10.4 19.3 9.86 17.7333 9.86 15.76C9.86 14.3467 10.0867 13.1333 10.54 12.12C11.0067 11.0933 11.7133 10.3067 12.66 9.76C13.6067 9.2 14.8133 8.92 16.28 8.92C17.0267 8.92 17.7067 8.98 18.32 9.1C18.9467 9.20667 19.5267 9.35333 20.06 9.54V11.44C19.5267 11.2267 18.9533 11.0667 18.34 10.96C17.74 10.84 17.1067 10.78 16.44 10.78C14.84 10.78 13.7067 11.2067 13.04 12.06C12.3867 12.9133 12.06 14.1467 12.06 15.76C12.06 17.2667 12.42 18.4133 13.14 19.2C13.86 19.9733 14.9733 20.36 16.48 20.36C17.0933 20.36 17.7067 20.3133 18.32 20.22C18.9467 20.1133 19.5333 19.9533 20.08 19.74V21.66C19.5467 21.8333 18.9667 21.9667 18.34 22.06C17.7267 22.1533 17.0467 22.2 16.3 22.2Z" fill="white"/>
</svg>
