<svg width="44" height="45" viewBox="0 0 44 45" fill="none" xmlns="http://www.w3.org/2000/svg">
<path d="M22 26.4375C19.9375 26.4375 18.15 24.75 18.15 22.5C18.15 20.3906 19.8 18.5625 22 18.5625C24.0625 18.5625 25.85 20.25 25.85 22.5C25.85 24.6094 24.0625 26.4375 22 26.4375Z" fill="white"/>
<path fill-rule="evenodd" clip-rule="evenodd" d="M26.675 12.9375H17.325C16.225 13.0781 15.675 13.2187 15.2625 13.3594C14.7125 13.5 14.3 13.7812 13.8875 14.2031C13.5611 14.5369 13.4069 14.8708 13.2205 15.2743C13.1713 15.3806 13.1198 15.4921 13.0625 15.6094C13.0412 15.6746 13.0167 15.7433 12.9903 15.8168C12.8465 16.2187 12.65 16.7678 12.65 17.7187V27.2812C12.7875 28.4062 12.925 28.9687 13.0625 29.3906C13.2 29.9531 13.475 30.375 13.8875 30.7969C14.2139 31.1307 14.5403 31.2884 14.9348 31.4791C15.0389 31.5293 15.1477 31.5819 15.2625 31.6406C15.3263 31.6624 15.3934 31.6875 15.4653 31.7144C15.8583 31.8615 16.3952 32.0625 17.325 32.0625H26.675C27.775 31.9219 28.325 31.7812 28.7375 31.6406C29.2875 31.5 29.7 31.2187 30.1125 30.7969C30.4389 30.463 30.5931 30.1292 30.7795 29.7257C30.8287 29.6193 30.8801 29.508 30.9375 29.3906C30.9588 29.3254 30.9833 29.2567 31.0097 29.1832C31.1535 28.7812 31.35 28.2322 31.35 27.2812V17.7187C31.2125 16.5937 31.075 16.0312 30.9375 15.6094C30.8 15.0469 30.525 14.625 30.1125 14.2031C29.7861 13.8693 29.4597 13.7116 29.0652 13.5209C28.9613 13.4707 28.8521 13.418 28.7375 13.3594C28.6737 13.3376 28.6066 13.3125 28.5347 13.2856C28.1417 13.1385 27.6048 12.9375 26.675 12.9375ZM22 16.4531C18.7 16.4531 16.0875 19.125 16.0875 22.5C16.0875 25.875 18.7 28.5469 22 28.5469C25.3 28.5469 27.9125 25.875 27.9125 22.5C27.9125 19.125 25.3 16.4531 22 16.4531ZM29.425 16.3125C29.425 17.0891 28.8094 17.7187 28.05 17.7187C27.2906 17.7187 26.675 17.0891 26.675 16.3125C26.675 15.5358 27.2906 14.9062 28.05 14.9062C28.8094 14.9062 29.425 15.5358 29.425 16.3125Z" fill="white"/>
<path fill-rule="evenodd" clip-rule="evenodd" d="M0 22.5C0 10.0736 9.84974 0 22 0C34.1503 0 44 10.0736 44 22.5C44 34.9264 34.1503 45 22 45C9.84974 45 0 34.9264 0 22.5ZM17.325 10.8281H26.675C27.9125 10.9687 28.7375 11.1094 29.425 11.3906C30.25 11.8125 30.8 12.0937 31.4875 12.7969C32.175 13.5 32.5875 14.2031 32.8625 14.9062C33.1375 15.6094 33.4125 16.4531 33.4125 17.7187V27.2812C33.275 28.5469 33.1375 29.3906 32.8625 30.0937C32.45 30.9375 32.175 31.5 31.4875 32.2031C30.8 32.9062 30.1125 33.3281 29.425 33.6094C28.7375 33.8906 27.9125 34.1719 26.675 34.1719H17.325C16.0875 34.0312 15.2625 33.8906 14.575 33.6094C13.75 33.1875 13.2 32.9062 12.5125 32.2031C11.825 31.5 11.4125 30.7969 11.1375 30.0937C10.8625 29.3906 10.5875 28.5469 10.5875 27.2812V17.7187C10.725 16.4531 10.8625 15.6094 11.1375 14.9062C11.55 14.0625 11.825 13.5 12.5125 12.7969C13.2 12.0937 13.8875 11.6719 14.575 11.3906C15.2625 11.1094 16.0875 10.8281 17.325 10.8281Z" fill="white"/>
</svg>
